<svg width="160" height="127" viewBox="0 0 160 127" fill="none" xmlns="http://www.w3.org/2000/svg">
<path d="M24.0623 91.4452C29.5123 88.7612 30.7529 80.134 26.8333 72.1757C22.9137 64.2174 15.3181 59.9417 9.86808 62.6256C4.41809 65.3096 3.17749 73.9368 7.09711 81.8951C11.0167 89.8534 18.6123 94.1291 24.0623 91.4452Z" fill="#2DD09B"/>
<path d="M12.4238 68.8303C12.4238 68.8303 22.2015 71.7984 25.519 84.8929" stroke="black" stroke-width="1.94183" stroke-miterlimit="10" stroke-linecap="round"/>
<path d="M14.5184 83.3213C14.5184 83.3213 13.1216 77.7343 20.4549 75.6392" stroke="black" stroke-width="1.94183" stroke-miterlimit="10" stroke-linecap="round"/>
<path d="M152.373 81.8973C156.293 73.939 155.052 65.3118 149.602 62.6278C144.152 59.9439 136.557 64.2196 132.637 72.1779C128.718 80.1362 129.958 88.7634 135.408 91.4474C140.858 94.1313 148.454 89.8556 152.373 81.8973Z" fill="#2DD09B"/>
<path d="M147.042 68.8303C147.042 68.8303 137.265 71.7984 133.947 84.8929" stroke="black" stroke-width="1.94183" stroke-miterlimit="10" stroke-linecap="round"/>
<path d="M144.947 83.3213C144.947 83.3213 146.344 77.7343 139.011 75.6392" stroke="black" stroke-width="1.94183" stroke-miterlimit="10" stroke-linecap="round"/>
<path d="M95.4668 125.573H63.6473C42.2027 125.573 24.8193 108.19 24.8193 86.7469V78.6074C24.8193 54.8627 48.7712 31.4673 70.2159 31.4673H91.5173C112.962 31.4673 134.295 56.9893 134.295 78.4328V86.7469C134.295 108.19 116.911 125.573 95.4668 125.573Z" fill="#2CDEA7"/>
<path d="M77.597 1.38147L68.3745 31.1967C67.9852 32.4573 69.0712 33.1364 70.248 33.737C71.9626 34.61 74.5816 35.1338 74.5816 35.1338C76.6088 35.5633 79.1213 35.8322 82.7879 35.483C82.7879 35.483 86.1054 35.3084 88.693 33.737C89.8209 33.0509 90.9558 32.459 90.5665 31.1967L81.344 1.38147C80.7748 -0.460489 78.168 -0.460489 77.5988 1.38147H77.597Z" fill="#FCE22B"/>
<path d="M80.6904 9.85286L75.7928 9.54383C75.1922 9.50542 74.6945 10.0048 74.7347 10.6071L74.7906 11.4347C74.8098 11.7088 75.0647 11.9043 75.3353 11.8502L80.7515 10.7555C81.2735 10.6507 81.2212 9.88778 80.6904 9.8546V9.85286Z" fill="black"/>
<path d="M81.4265 20.6373L72.1045 21.3287C71.2036 21.395 70.5488 22.2139 70.6798 23.1078L70.7304 23.4552C70.7688 23.7171 71.022 23.89 71.2804 23.8324L81.5575 21.5365C82.1092 21.4125 81.987 20.5954 81.4248 20.6373H81.4265Z" fill="black"/>
<path d="M79.5688 15.9233L84.6044 14.0796C85.1963 13.8631 85.8423 14.2141 85.9837 14.8286L86.1548 15.5724C86.2037 15.7889 86.0535 16.0001 85.8318 16.0228L79.733 16.6374C79.2999 16.6811 79.1603 16.0717 79.5688 15.9233Z" fill="black"/>
<path d="M77.6999 28.3909L88.424 24.9794C88.6771 24.8991 88.946 25.0527 89.0054 25.3111L89.4192 27.1147C89.4786 27.3748 89.304 27.6297 89.0403 27.6681L77.9007 29.2761C77.3472 29.3564 77.1639 28.5603 77.6982 28.3909H77.6999Z" fill="black"/>
<path d="M64.1083 126.201H95.72C111.778 126.201 125.542 116.33 131.348 102.292C118.343 116.911 105.286 119.147 73.6294 118.882C36.1248 118.57 28.7671 94.9018 27.1346 90.0306C26.9477 89.4719 24.8193 79.4573 24.8193 79.4573V86.8041C24.8193 108.235 42.8051 126.199 64.1083 126.199V126.201Z" fill="#2DD09B"/>
<path d="M57.9892 114.794C53.7097 119.773 44.9622 119.914 38.4513 115.11C31.9403 110.305 30.1315 102.371 34.411 97.3918C38.6905 92.4124 47.438 92.271 53.9489 97.0758C60.4599 101.881 62.2687 109.814 57.9892 114.794Z" fill="#E2A33D"/>
<path d="M122.656 95.1657C128.029 99.1307 128.183 107.239 122.997 113.273C117.811 119.307 109.252 120.984 103.88 117.018C98.5073 113.053 98.3536 104.945 103.539 98.9107C108.725 92.8768 117.284 91.1989 122.656 95.1657Z" fill="#E2A33D"/>
<path d="M71.3069 95.197C70.8023 95.197 70.399 95.6283 70.4496 96.1293C70.9175 100.747 74.8182 104.353 79.5603 104.353C84.3025 104.353 88.2032 100.747 88.6711 96.1293C88.7217 95.6283 88.3166 95.197 87.8138 95.197H71.3087H71.3069Z" fill="#FFB0CD" stroke="black" stroke-width="1.94183" stroke-miterlimit="10" stroke-linecap="round"/>
<path d="M99.1371 91.0876H99.1388C105.873 91.0876 111.333 85.6284 111.333 78.8941V74.1905C111.333 67.4562 105.873 61.997 99.1388 61.997H99.1371C92.4024 61.997 86.9428 67.4562 86.9428 74.1905V78.8941C86.9428 85.6284 92.4024 91.0876 99.1371 91.0876Z" fill="white"/>
<path d="M96.1373 86.4977C100.454 86.4977 103.954 82.0406 103.954 76.5425C103.954 71.0443 100.454 66.5872 96.1373 66.5872C91.8201 66.5872 88.3203 71.0443 88.3203 76.5425C88.3203 82.0406 91.8201 86.4977 96.1373 86.4977Z" fill="black"/>
<path d="M93.7868 71.9871L93.0483 73.9425L90.96 74.0403C90.6108 74.056 90.4677 74.496 90.74 74.7142L92.3708 76.0219L91.8191 78.0384C91.7265 78.3754 92.1002 78.6478 92.3935 78.4557L94.1413 77.3086L95.889 78.4557C96.1806 78.6478 96.556 78.3754 96.4635 78.0384L95.9117 76.0219L97.5425 74.7142C97.8149 74.496 97.6717 74.056 97.3225 74.0403L95.2343 73.9425L94.4957 71.9871C94.3718 71.6606 93.9091 71.6606 93.7868 71.9871Z" fill="white"/>
<path d="M87.3854 69.9968C87.7032 68.5355 88.4138 67.2103 89.2763 65.9899C91.9058 62.2938 96.7336 60.4274 101.205 61.1554C104.619 61.6774 107.552 63.9646 109.226 66.9205C110.709 69.5376 111.487 72.4638 111.419 75.4493C111.416 75.4965 111.376 75.5331 111.327 75.5296C111.287 75.5279 111.253 75.4965 111.247 75.4598C110.697 72.7152 109.658 70.023 108.086 67.7009C106.527 65.3945 104.198 63.5334 101.434 62.9747C98.7101 62.4107 95.768 62.8245 93.3009 64.12C91.4396 65.0977 89.856 66.566 88.6286 68.2666C88.2217 68.8375 87.8446 69.4381 87.5443 70.0649C87.5233 70.1085 87.4727 70.126 87.429 70.105C87.3871 70.0841 87.3697 70.037 87.3836 69.9951L87.3854 69.9968Z" fill="black"/>
<path d="M104.863 63.9175C106.161 64.4413 107.538 64.5094 108.741 63.8284C109.953 63.1685 110.833 62.0546 111.783 61.021C111.599 61.7403 111.282 62.4195 110.852 63.041C109.983 64.3191 108.429 65.2985 106.836 65.0087C106.058 64.8725 105.343 64.4919 104.863 63.9175Z" fill="black"/>
<path d="M107.225 65.9861C108.522 66.5099 109.9 66.578 111.103 65.8971C112.314 65.2371 113.194 64.1232 114.144 63.0896C113.961 63.8089 113.641 64.4881 113.213 65.1096C112.344 66.3877 110.79 67.3671 109.198 67.0773C108.419 66.9411 107.705 66.5605 107.225 65.9861Z" fill="black"/>
<path d="M60.7792 61.9968C67.5101 61.9968 72.9734 67.4616 72.9734 74.1904V78.8922C72.9734 85.6227 67.5083 91.0858 60.7792 91.0858C54.0483 91.0858 48.585 85.621 48.585 78.8922V74.1904C48.585 67.4598 54.05 61.9968 60.7792 61.9968Z" fill="white"/>
<path d="M63.7798 86.4973C68.097 86.4973 71.5968 82.0401 71.5968 76.542C71.5968 71.0438 68.097 66.5867 63.7798 66.5867C59.4627 66.5867 55.9629 71.0438 55.9629 76.542C55.9629 82.0401 59.4627 86.4973 63.7798 86.4973Z" fill="black"/>
<path d="M66.1295 71.9871L66.8681 73.9425L68.9563 74.0403C69.3055 74.056 69.4487 74.496 69.1763 74.7142L67.5455 76.0219L68.0973 78.0384C68.1898 78.3754 67.8162 78.6478 67.5228 78.4557L65.7751 77.3086L64.0273 78.4557C63.7357 78.6478 63.3603 78.3754 63.4529 78.0384L64.0046 76.0219L62.3738 74.7142C62.1014 74.496 62.2446 74.056 62.5938 74.0403L64.6821 73.9425L65.4206 71.9871C65.5446 71.6606 66.0073 71.6606 66.1295 71.9871Z" fill="white"/>
<path d="M72.3696 70.0579C70.5607 67.1073 67.6763 64.6962 64.2925 63.9192C62.3614 63.4653 60.2959 63.4269 58.3403 63.7429C55.7422 64.1445 53.4515 65.4871 51.901 67.5979C50.2213 69.8467 49.2732 72.6471 48.6709 75.4441C48.6709 75.4965 48.6185 75.5454 48.5643 75.5314C48.5242 75.5227 48.498 75.4878 48.4963 75.4494C48.4718 73.9479 48.6604 72.4568 49.0096 71.0007C50.6369 64.2911 55.7929 61.0978 62.543 61.9551C66.2969 62.3846 69.7645 64.6525 71.6048 67.9593C71.9767 68.6106 72.3015 69.2862 72.5355 70.0073C72.5582 70.1208 72.4185 70.1662 72.3679 70.0579H72.3696Z" fill="black"/>
<path d="M55.0542 63.9175C54.5741 64.4919 53.8582 64.8708 53.0812 65.0087C51.4889 65.2985 49.9367 64.3208 49.0654 63.041C48.6359 62.4195 48.3181 61.7403 48.1348 61.021C49.0846 62.0546 49.9646 63.1685 51.1763 63.8284C52.3811 64.5094 53.7552 64.4413 55.0542 63.9175Z" fill="black"/>
<path d="M52.6919 65.9861C52.2118 66.5605 51.4959 66.9394 50.7189 67.0773C49.1266 67.3671 47.5744 66.3894 46.7031 65.1096C46.2736 64.4881 45.9558 63.8089 45.7725 63.0896C46.7223 64.1232 47.6023 65.2371 48.814 65.8971C50.0188 66.578 51.3929 66.5099 52.6919 65.9861Z" fill="black"/>
<path d="M57.4866 85.4498L55.8017 82.5254C55.7633 82.4591 55.7947 82.3735 55.8663 82.3473L60.8285 80.5543C60.942 80.5124 61.0415 80.6416 60.9717 80.7411L57.6944 85.4586C57.642 85.5336 57.5302 85.5284 57.4848 85.4498H57.4866Z" fill="white"/>
<path d="M102.431 85.4498L104.116 82.5254C104.154 82.4591 104.123 82.3735 104.051 82.3473L99.0892 80.5543C98.9757 80.5124 98.8762 80.6416 98.9461 80.7411L102.223 85.4586C102.276 85.5336 102.387 85.5284 102.433 85.4498H102.431Z" fill="white"/>
</svg>
