<svg width="83" height="29" viewBox="0 0 83 29" fill="none" xmlns="http://www.w3.org/2000/svg">
<g clip-path="url(#clip0_31113_21618)">
<path d="M10.8039 17.0034H13.9561C14.5684 17.0237 14.981 17.1793 15.2002 17.4703C15.4193 17.7612 15.5934 18.3364 15.7287 19.2024C15.7739 19.5137 15.7674 19.8452 15.6901 20.1971C15.574 20.7587 15.9608 21.2932 16.5087 21.2797C18.9389 21.2188 20.5504 21.1646 21.3433 21.1308C22.4714 21.0902 23.348 21.1038 23.9797 21.1579C24.1538 21.1579 24.6695 21.3203 25.5268 21.6383C25.6815 21.7195 25.7589 21.8074 25.7589 21.9089C25.7395 22.0916 25.7589 22.4232 25.804 22.9171C25.8491 23.411 25.8685 23.7358 25.8491 23.8914C25.8491 24.2703 25.7524 24.6357 25.5655 24.9876C25.3721 25.3394 25.1529 25.5424 24.908 25.6033C24.7339 25.6439 24.1667 25.7386 23.2062 25.8875C22.2457 26.0363 21.7623 26.0837 21.7623 26.0228H6.62684C4.56409 26.104 3.01702 26.1446 1.98565 26.1446C1.59888 26.1581 1.22501 26.1108 0.864027 25.9957C0.56106 25.901 0.329 25.6304 0.270986 25.3056L0.0131415 23.6884C-0.0126429 23.5464 0.000249285 23.4043 0.045372 23.2689L0.348339 22.3352C0.464369 21.9766 0.689982 21.7871 1.03807 21.7668L3.29421 21.53C3.29421 21.53 3.34578 21.53 3.36511 21.53C5.66637 21.5097 8.10945 21.4691 10.6943 21.4082C10.5976 21.2864 10.5203 21.1714 10.4623 21.0632C10.4043 20.9549 10.3591 20.8128 10.3334 20.6437C10.3076 20.4745 10.2882 20.3459 10.2753 20.2647C10.2624 20.1835 10.2624 20.0009 10.2624 19.7099V19.0942C10.2431 18.4311 10.2238 17.9845 10.2044 17.7409C10.2044 17.4635 10.2431 17.2673 10.3205 17.1726C10.3978 17.0711 10.559 17.0237 10.8104 17.0237L10.8039 17.0034ZM9.12148 5.98803C8.74761 5.94067 8.44464 6.48196 8.33506 6.86087C8.27704 7.06386 7.96118 7.90287 7.94185 8.24118C7.94185 8.28854 7.94185 8.24118 7.83871 8.98546C7.77425 9.44556 8.07077 9.8786 8.5091 9.96656C9.90791 10.2304 11.3841 10.4876 12.5186 10.5011C14.0399 10.5214 15.4709 10.7244 16.7279 10.6635C18.752 10.5417 19.9767 10.4943 20.3957 10.5146C20.9114 10.5349 21.5431 10.677 22.3038 10.8935C22.8581 11.0559 23.232 11.1033 23.406 11.3604C23.5801 11.6581 23.5285 11.9694 23.2965 13.0384C23.2384 13.2617 23.1418 13.6136 22.9419 14.3443C22.9161 14.439 22.8904 14.527 22.8646 14.615C22.6712 15.3186 22.0588 15.799 21.3562 15.799C16.4765 15.7923 13.2083 15.7314 11.5517 15.6231C11.5323 15.6231 11.5065 15.6231 11.4872 15.6164C11.2938 15.5893 10.3398 15.4946 8.62513 15.3389C6.75576 15.1698 5.45365 15.0818 4.73169 15.0818C3.60362 15.0818 2.93323 14.9194 2.72695 14.6014C2.53357 14.3037 2.44977 13.7692 2.46911 13.0046C2.50778 12.5445 2.60447 11.8611 2.75273 10.9612L2.98479 9.42527C3.42313 5.51439 3.71965 3.22065 3.87436 2.53726C4.17732 1.03516 5.27961 0.385603 7.16831 0.581823C8.14168 0.764511 9.21817 0.825407 10.4043 0.778043C11.5903 0.73068 12.2865 0.561524 13.2857 0.48033C13.9754 0.4262 14.8843 0.345005 16.0317 0.453265C16.1284 0.473563 16.2315 0.473563 16.3347 0.473563C16.7923 0.473563 17.2436 0.487096 17.6948 0.56829C18.6166 0.737446 20.2346 1.03516 22.5487 1.48173C22.987 1.56292 23.2965 1.69825 23.4769 1.8877C23.6574 2.07716 23.7219 2.39517 23.6639 2.83497C23.6445 2.97706 23.5801 3.43717 23.4769 4.21528C23.3738 5.00016 23.3094 4.79041 23.29 4.9528C23.0966 5.9339 22.5165 6.22485 21.3949 6.20455C21.0726 6.20455 20.3055 5.92037 18.8809 5.72415C17.4563 5.52793 16.6054 5.64972 16.3024 5.64972C14.562 5.60912 13.0343 5.62265 11.7193 5.67678C11.5646 5.67678 11.1327 5.72415 10.4171 5.82564C9.70163 5.92713 9.2633 5.99479 9.11504 5.9745L9.12148 5.98803Z" fill="#2CDEA7"/>
<path d="M42.7374 27.8022C42.2604 27.7413 40.4361 27.6263 37.2646 27.4572C34.0931 27.288 32.3462 27.2136 32.0239 27.2339C31.4309 27.2948 30.999 27.2406 30.7347 27.085C30.58 26.9835 30.4962 26.882 30.4769 26.7873C30.3222 25.8468 30.1997 24.6898 30.103 23.3298C30.0837 23.2486 30.1288 23.1539 30.2319 23.0456C30.3351 22.9373 30.4253 22.8697 30.5027 22.8494C31.6114 22.6058 33.7128 22.3419 36.8198 22.051C39.9204 21.76 41.7318 21.5841 42.2475 21.5232C43.1628 21.4217 44.9999 21.3405 47.746 21.2796C50.492 21.2187 51.9746 21.1917 52.1873 21.1917C53.2574 21.0699 54.0889 21.0293 54.682 21.0699C55.5973 21.1511 55.9454 21.6721 55.7134 22.6329C55.4104 23.7763 55.0559 24.9807 54.6562 26.2392C54.5015 26.7602 53.8182 27.0715 52.5935 27.173C52.2325 27.2136 50.5758 27.3151 47.6364 27.491C44.697 27.6602 43.0597 27.7684 42.7374 27.809V27.8022ZM44.9548 12.8827C44.1684 12.8827 42.2539 12.7203 39.1985 12.4023C39.1791 12.4023 39.076 12.4159 38.8826 12.4294C38.7859 13.1128 38.6763 14.9261 38.8181 15.0818C38.96 15.2306 39.3209 15.5689 39.9591 15.6231C40.5521 15.6704 41.403 15.8396 42.3635 15.9411C43.324 16.0426 44.4198 16.2658 45.8122 16.2929C46.7339 16.3132 48.2166 16.002 48.4486 16.002C48.468 16.002 49.2673 15.9411 50.853 15.8193C51.1753 15.799 51.4138 15.8666 51.5556 16.0155C51.6974 16.1644 51.6781 16.6515 51.6588 17.0101C51.6588 18.5325 51.4009 19.0535 50.8466 19.5542C50.2729 20.0955 49.3575 20.3053 48.0941 20.1835C47.6944 20.1429 47.4237 20.1226 47.2948 20.1226C44.394 19.9805 40.7262 18.9723 36.2913 18.634C36.1946 18.634 36.0592 18.5934 35.8916 18.5122C35.2792 18.2348 34.6797 17.5988 34.0867 16.6177C33.4937 15.6366 33.2294 14.8246 33.2874 14.1819C33.3841 13.2007 33.5839 10.3319 33.8869 9.49286C34.0802 8.97186 34.2994 8.64032 34.5444 8.49823C34.7893 8.35614 35.2212 8.34937 35.8336 8.47116C36.0463 8.49146 36.2075 8.49823 36.3364 8.49823C36.4653 8.49823 36.6394 8.49823 36.8779 8.4847C37.1164 8.47793 37.284 8.47116 37.3807 8.47116H38.9857C39.0631 8.47116 39.5852 8.49146 40.5457 8.53206C41.5126 8.57266 42.067 8.59296 42.2217 8.59296C43.556 8.55236 44.7357 8.43057 45.7477 8.23435C45.9926 8.17345 46.1731 8.05166 46.2763 7.87574C46.3794 7.69305 46.4439 7.43593 46.4632 7.09086C46.4826 6.77284 46.5212 6.54956 46.5792 6.42777C46.5792 6.36687 46.489 6.28568 46.3085 6.17065C46.128 6.06239 45.9862 5.99473 45.896 5.97443C45.5156 5.87294 45.0837 5.82557 44.6067 5.82557H41.9703C40.4619 5.82557 39.5852 5.81881 39.3338 5.79851C39.1598 5.79851 38.6505 5.77144 37.7997 5.72408C36.9488 5.67672 36.4395 5.64965 36.2655 5.64965C35.4275 5.69025 34.4992 5.83234 33.4872 6.06916C33.0102 6.19095 32.7717 6.04209 32.7717 5.61582C32.8104 3.59272 32.8684 2.25978 32.9457 1.61699C33.0231 1.05539 33.1971 0.649419 33.4743 0.399069C33.7515 0.148719 34.1834 0.0201612 34.7764 0.0201612C37.5869 -0.0610333 39.9398 0.162252 41.8542 0.68325C42.428 0.805042 43.079 0.865938 43.801 0.865938C44.0846 0.865938 44.2973 0.879471 44.4327 0.893003C46.2827 0.893003 47.9652 0.994496 49.4735 1.19072C50.202 1.31251 50.795 1.4546 51.2656 1.62375C51.7361 1.79291 52.0842 2.07032 52.3098 2.44923C52.9222 3.49123 53.0898 4.94597 52.8255 6.80668C52.7868 7.02996 52.6644 7.59832 52.4516 8.51853C52.2389 9.43873 52.1164 10.0139 52.0778 10.2304C51.9811 10.8732 51.7361 11.34 51.3494 11.6445C50.9561 11.9422 50.6016 12.4091 49.9119 12.5106C48.4422 12.7542 46.9531 12.8692 45.4447 12.8692H44.9548V12.8827Z" fill="#2CDEA7"/>
<path d="M58.7885 4.43208C58.7885 4.1885 58.7885 3.69456 58.7756 2.94351C58.7627 2.19246 58.7627 1.7053 58.7627 1.48201C58.9367 1.46171 59.5427 1.47524 60.5805 1.50908C61.6183 1.54967 62.2307 1.56997 62.3983 1.56997C62.495 1.54967 62.7657 1.54967 63.2169 1.56997C63.6682 1.59027 63.9389 1.59027 64.0356 1.56997C66.2531 1.42788 68.1676 1.54291 69.792 1.90152C71.0554 2.19923 71.6162 3.07207 71.4809 4.52004C71.4615 4.68243 71.4164 5.51468 71.3519 7.01677C71.2875 8.51888 71.2295 9.47968 71.1972 9.90595C71.0812 11.4486 70.7976 12.7816 70.3399 13.9048C70.1465 14.4055 69.8822 14.7641 69.5406 14.9874C68.6832 15.549 67.9162 15.9414 67.2458 16.1579C66.9944 16.1985 66.8139 16.2188 66.7043 16.2188C66.6463 16.2188 66.4529 16.2053 66.1177 16.1715C65.7825 16.1444 65.5891 16.1241 65.5311 16.1241C62.9527 16.0226 61.5023 15.9617 61.1735 15.9414C60.6192 15.9008 60.0712 15.5828 59.5233 14.9941C58.9819 14.4055 58.666 13.8033 58.5951 13.2079C58.421 11.8073 58.4017 10.1901 58.5371 8.36325C58.7111 6.01537 58.7949 4.70273 58.7949 4.42531L58.7885 4.43208ZM74.4783 28.7905C74.3429 28.7905 73.621 28.8243 72.3124 28.8987C71.0038 28.9664 70.2819 29.007 70.1465 29.007C69.6115 29.007 69.1345 28.9664 68.7155 28.8852C68.6188 28.8852 68.4834 28.8649 68.3158 28.8243C68.1611 28.804 67.9226 28.7634 67.6003 28.7025C67.278 28.6416 67.0717 28.6078 66.9815 28.5942C66.8977 28.5807 66.743 28.5536 66.5238 28.5063C66.3046 28.4589 66.137 28.4048 66.021 28.3574C65.905 28.3101 65.7503 28.2492 65.5633 28.1747C65.3699 28.1071 65.1637 28.0191 64.9316 27.9176C64.2999 27.6199 63.7004 27.1463 63.1267 26.5035C62.553 25.8607 62.2694 25.2382 62.2694 24.636C62.2694 23.2354 62.4628 22.1934 62.8431 21.51C63.9131 19.629 66.1112 18.5058 69.431 18.1404C69.8693 18.0795 70.3206 18.0525 70.7782 18.0525C71.9063 18.0525 73.2342 18.1607 74.7748 18.3705C76.309 18.5802 77.5402 18.8171 78.4555 19.0742C79.5256 19.3922 80.2927 19.8591 80.7632 20.4545C81.2338 21.0567 81.4659 21.8889 81.4659 22.9512C81.4659 24.2909 80.9566 25.3668 79.9446 26.1719C79.8672 26.2328 79.719 26.3546 79.4998 26.5305C79.2806 26.7132 79.1388 26.8283 79.0679 26.8756C79.0035 26.923 78.881 27.0177 78.7069 27.1463C78.5329 27.2748 78.404 27.3696 78.3202 27.4169C78.2364 27.4643 78.1074 27.5387 77.9463 27.6402C77.7851 27.7417 77.6433 27.8229 77.5144 27.8838C77.3919 27.9447 77.2437 28.0123 77.0696 28.0935C76.8956 28.1747 76.7151 28.2559 76.5281 28.3371C75.8384 28.6145 75.1551 28.7702 74.4654 28.7905H74.4783ZM63.8616 10.8329C63.9389 10.8329 64.1516 10.8329 64.5062 10.8465C64.8607 10.86 65.0734 10.86 65.1508 10.86C65.5118 10.86 65.8405 10.745 66.1241 10.5149C66.4078 10.2849 66.5625 10.0007 66.5818 9.6556C66.6592 7.93021 66.4787 6.51607 66.0403 5.41318L62.6884 5.7109V9.64883C62.7077 10.1292 62.7915 10.4405 62.9333 10.5826C63.0751 10.7247 63.3845 10.8059 63.8616 10.8262V10.8329ZM74.994 25.0623C75.4903 25.0623 75.9029 24.8593 76.2252 24.4465C76.5475 24.0338 76.7151 23.5466 76.7151 22.985C76.7151 22.146 76.2768 21.625 75.4001 21.422C74.4654 21.2191 72.6025 21.1243 69.8113 21.1243H69.7855C69.5148 21.1243 69.2892 21.1717 69.0958 21.2597C68.9024 21.3476 68.7477 21.5032 68.6252 21.713C68.5028 21.9227 68.4125 22.1122 68.3545 22.2678C68.2965 22.4302 68.232 22.667 68.1547 22.9918C68.116 23.1339 68.0966 23.2625 68.0966 23.3843C68.0966 23.6481 68.1611 23.8647 68.2836 24.0473C68.4061 24.23 68.6059 24.3654 68.8702 24.4533C69.1345 24.5413 69.3665 24.6022 69.5599 24.636C69.7533 24.6631 70.0305 24.7037 70.3915 24.7443C70.4688 24.7646 70.5268 24.7713 70.5655 24.7713C71.0038 24.8119 71.7322 24.8593 72.7443 24.9202C73.7563 24.9811 74.4847 25.0284 74.9231 25.069H75.0069L74.994 25.0623ZM74.2591 5.88005C74.7941 5.90035 76.0254 5.91388 76.4121 6.04244C76.7924 6.171 77.0309 6.28602 77.1276 6.38752C77.263 6.48901 77.3597 6.66493 77.4113 6.91528C77.4693 7.16563 77.5015 7.38892 77.5144 7.57837C77.5208 7.76782 77.5273 8.0723 77.5273 8.49858V9.31052C77.5273 9.55411 77.4499 9.76386 77.2952 9.96008C77.1405 10.1495 76.9149 10.2984 76.6055 10.4134C76.3025 10.5217 74.3945 10.6029 74.1624 10.657C73.9304 10.7044 73.6338 10.7653 73.2729 10.8194C72.5445 10.9209 72.119 10.6502 71.9836 10.0074C71.7 8.72186 71.887 7.46335 72.5573 6.21836C72.6154 6.13717 72.7185 6.07627 72.8732 6.03567C73.0279 5.99508 73.202 5.96801 73.4018 5.94771C73.6016 5.92741 74.1495 5.88682 74.2527 5.89358L74.2591 5.88005ZM77.927 1.40758C77.927 1.00838 78.0623 0.676831 78.3266 0.412948C78.5909 0.155832 78.9261 0.0205078 79.3322 0.0205078L81.9106 0.257325L82.1943 0.500909C82.349 0.622701 82.5166 0.818921 82.71 1.08957C82.9033 1.36022 82.9936 1.6038 82.9936 1.82709V5.6906C82.9936 5.6906 82.9549 6.18453 82.9356 7.16563C82.9162 8.14673 82.8969 9.18196 82.8776 10.2646C82.8582 11.3472 82.8518 11.9155 82.8518 11.9764C82.8324 13.0387 82.9227 15.5084 82.5166 16.0294C82.104 16.5504 80.8986 16.7534 79.9833 16.6992H79.6094L78.9777 16.5165C78.5973 16.415 78.404 16.1579 78.404 15.7317C78.4233 12.3418 78.0945 8.37002 78.0365 7.16563C77.9592 5.83945 77.9205 3.32919 77.9205 1.40758H77.927Z" fill="#2CDEA7"/>
</g>
<defs>
<clipPath id="clip0_31113_21618">
<rect width="83" height="29" fill="white"/>
</clipPath>
</defs>
</svg>
